<svg width="170" height="52" viewBox="0 0 170 52" fill="none" xmlns="http://www.w3.org/2000/svg">
<mask id="mask0_8667_388548" style="mask-type:luminance" maskUnits="userSpaceOnUse" x="0" y="0" width="27" height="40">
<path d="M22.8045 0.177893L3.64936 19.333C1.31264 21.6712 0 24.8416 0 28.1472C0 31.4528 1.31264 34.6232 3.64936 36.9614L3.99203 37.304C4.55258 37.8646 5.21808 38.3093 5.9505 38.6127C6.68292 38.9161 7.46792 39.0723 8.2607 39.0723C9.05347 39.0723 9.83847 38.9161 10.5709 38.6127C11.3033 38.3093 11.9688 37.8646 12.5294 37.304L20.9001 28.9333L20.5574 28.5906C19.9969 28.03 19.3314 27.5853 18.599 27.2819C17.8666 26.9785 17.0816 26.8223 16.2888 26.8223C15.496 26.8223 14.711 26.9785 13.9786 27.2819C13.2462 27.5853 12.5807 28.03 12.0201 28.5906L22.8054 17.8045C25.1421 15.4663 26.4547 12.296 26.4547 8.99032C26.4547 5.68468 25.1421 2.51431 22.8054 0.176147L22.8045 0.177893Z" fill="white"/>
</mask>
<g mask="url(#mask0_8667_388548)">
<path d="M27.6726 0.177917H-1.21875V39.6618H27.6726V0.177917Z" fill="url(#paint0_linear_8667_388548)"/>
</g>
<mask id="mask1_8667_388548" style="mask-type:luminance" maskUnits="userSpaceOnUse" x="14" y="12" width="28" height="40">
<path d="M28.8418 14.6977L20.2435 23.296L20.5862 23.6387C21.1467 24.1993 21.8122 24.644 22.5446 24.9474C23.277 25.2508 24.0621 25.4069 24.8548 25.4069C25.6476 25.4069 26.4326 25.2508 27.165 24.9474C27.8974 24.644 28.5629 24.1993 29.1235 23.6387L18.5667 34.1955C16.23 36.5336 14.9174 39.704 14.9174 43.0096C14.9174 46.3153 16.23 49.4856 18.5667 51.8238L37.7227 32.6669C40.0594 30.3288 41.3721 27.1584 41.3721 23.8528C41.3721 20.5471 40.0594 17.3768 37.7227 15.0386L37.38 14.6959C36.2478 13.5637 34.7122 12.9276 33.1109 12.9276C31.5097 12.9276 29.9741 13.5637 28.8418 14.6959" fill="white"/>
</mask>
<g mask="url(#mask1_8667_388548)">
<path d="M42.59 12.9276H13.6986V51.8221H42.59V12.9276Z" fill="url(#paint1_linear_8667_388548)"/>
</g>
<mask id="mask2_8667_388548" style="mask-type:luminance" maskUnits="userSpaceOnUse" x="48" y="11" width="11" height="17">
<path d="M55.4478 11.4951C55.4127 11.4946 55.3778 11.5013 55.3453 11.5146C55.3128 11.5279 55.2833 11.5477 55.2586 11.5727C55.2334 11.5972 55.2134 11.6266 55.2001 11.6592C55.1867 11.6918 55.1802 11.7267 55.181 11.7619L55.2028 20.3123C55.2028 20.3567 55.1845 20.3829 55.1479 20.3899C55.1112 20.3969 55.0842 20.3785 55.0694 20.3341L52.2843 11.7174C52.2707 11.6518 52.234 11.5933 52.1808 11.5525C52.1277 11.5117 52.0617 11.4914 51.9948 11.4951H49.0782C49.0429 11.4943 49.0079 11.5008 48.9752 11.5139C48.9425 11.5271 48.9128 11.5467 48.8879 11.5716C48.863 11.5965 48.8434 11.6262 48.8302 11.6589C48.817 11.6916 48.8106 11.7266 48.8113 11.7619V26.8179C48.8112 26.853 48.818 26.8878 48.8314 26.9203C48.8448 26.9528 48.8644 26.9823 48.8892 27.0072C48.914 27.032 48.9434 27.0518 48.9758 27.0652C49.0083 27.0787 49.043 27.0856 49.0782 27.0856H51.6609C51.696 27.0856 51.7308 27.0787 51.7632 27.0652C51.7956 27.0518 51.8251 27.032 51.8499 27.0072C51.8747 26.9823 51.8943 26.9528 51.9076 26.9203C51.921 26.8878 51.9278 26.853 51.9277 26.8179L51.9059 18.2675C51.9034 18.2499 51.9078 18.232 51.9182 18.2175C51.9286 18.203 51.9442 18.1931 51.9617 18.1899C51.9983 18.183 52.0245 18.2013 52.0393 18.2457L54.8008 26.8624C54.8141 26.9282 54.8507 26.987 54.9039 27.028C54.9571 27.069 55.0233 27.0895 55.0903 27.0856H58.0288C58.064 27.086 58.0989 27.0792 58.1314 27.0657C58.1639 27.0522 58.1934 27.0323 58.218 27.0071C58.2435 26.9828 58.2636 26.9534 58.2771 26.9208C58.2906 26.8882 58.2972 26.8532 58.2965 26.8179V11.7619C58.2968 11.7267 58.29 11.6918 58.2765 11.6593C58.263 11.6268 58.2431 11.5973 58.218 11.5727C58.1933 11.5477 58.1638 11.5279 58.1313 11.5146C58.0988 11.5013 58.0639 11.4946 58.0288 11.4951H55.4478Z" fill="white"/>
</mask>
<g mask="url(#mask2_8667_388548)">
<path d="M58.2973 11.4951H48.8122V27.0813H58.2973V11.4951Z" fill="url(#paint2_radial_8667_388548)"/>
</g>
<mask id="mask3_8667_388548" style="mask-type:luminance" maskUnits="userSpaceOnUse" x="60" y="11" width="4" height="17">
<path d="M60.5242 11.495C60.4891 11.4946 60.4542 11.5013 60.4217 11.5146C60.3892 11.5279 60.3597 11.5477 60.335 11.5727C60.3098 11.5972 60.2899 11.6266 60.2765 11.6592C60.2632 11.6917 60.2567 11.7267 60.2574 11.7619V26.8179C60.2565 26.8531 60.263 26.8881 60.2763 26.9207C60.2897 26.9533 60.3097 26.9827 60.335 27.0071C60.3597 27.0323 60.3891 27.0522 60.4216 27.0657C60.4541 27.0792 60.489 27.0859 60.5242 27.0856H63.1296C63.1647 27.0856 63.1995 27.0787 63.2319 27.0652C63.2644 27.0518 63.2938 27.032 63.3186 27.0072C63.3434 26.9823 63.363 26.9528 63.3764 26.9203C63.3898 26.8878 63.3966 26.853 63.3964 26.8179V11.7619C63.3972 11.7266 63.3907 11.6916 63.3776 11.6589C63.3644 11.6262 63.3448 11.5965 63.3199 11.5716C63.295 11.5467 63.2653 11.5271 63.2326 11.5139C63.1999 11.5008 63.1649 11.4943 63.1296 11.495H60.5242Z" fill="white"/>
</mask>
<g mask="url(#mask3_8667_388548)">
<path d="M63.3964 11.4951H60.2565V27.0813H63.3964V11.4951Z" fill="url(#paint3_radial_8667_388548)"/>
</g>
<mask id="mask4_8667_388548" style="mask-type:luminance" maskUnits="userSpaceOnUse" x="65" y="11" width="10" height="17">
<path d="M68.5175 24.2535V20.2896C68.5153 20.2744 68.5167 20.259 68.5215 20.2445C68.5263 20.23 68.5345 20.2168 68.5454 20.206C68.5563 20.1953 68.5695 20.1872 68.584 20.1825C68.5986 20.1777 68.614 20.1765 68.6292 20.1789H69.631C69.8532 20.1734 70.0733 20.2234 70.2713 20.3245C70.4692 20.4256 70.6388 20.5746 70.7646 20.7578C71.0465 21.1438 71.1875 21.6632 71.1875 22.316C71.1875 22.9688 71.0465 23.4734 70.7646 23.8297C70.4826 24.1867 70.0967 24.3648 69.6066 24.3643H68.6274C68.6123 24.3666 68.5968 24.3654 68.5823 24.3606C68.5677 24.3559 68.5545 24.3478 68.5436 24.3371C68.5328 24.3263 68.5246 24.3131 68.5198 24.2986C68.5149 24.2841 68.5136 24.2686 68.5158 24.2535M68.5158 17.7958V14.3001C68.5136 14.285 68.5149 14.2696 68.5198 14.255C68.5246 14.2405 68.5328 14.2273 68.5436 14.2166C68.5545 14.2058 68.5677 14.1977 68.5823 14.193C68.5968 14.1883 68.6123 14.187 68.6274 14.1894H69.4288C69.9484 14.1894 70.3455 14.3524 70.6198 14.6786C70.8942 15.0047 71.0314 15.4723 71.0314 16.0815C71.0314 16.6628 70.8904 17.1119 70.6085 17.4287C70.3266 17.7455 69.9333 17.9051 69.4288 17.9074H68.6274C68.6123 17.9096 68.5968 17.9082 68.5822 17.9034C68.5677 17.8986 68.5545 17.8904 68.5436 17.8796C68.5328 17.8687 68.5247 17.8555 68.5198 17.841C68.515 17.8264 68.5136 17.811 68.5158 17.7958ZM65.6436 11.495C65.6084 11.4943 65.5733 11.5008 65.5406 11.5139C65.5079 11.5271 65.4783 11.5467 65.4533 11.5716C65.4284 11.5965 65.4088 11.6262 65.3956 11.6589C65.3825 11.6916 65.3761 11.7266 65.3768 11.7619V26.8179C65.3766 26.853 65.3835 26.8878 65.3968 26.9203C65.4102 26.9528 65.4298 26.9823 65.4546 27.0072C65.4794 27.032 65.5088 27.0518 65.5413 27.0652C65.5737 27.0787 65.6085 27.0856 65.6436 27.0856H69.8516C71.173 27.0856 72.2484 26.7145 73.0779 25.9721C73.9074 25.2298 74.323 24.1683 74.3248 22.7878C74.3248 21.1554 73.7385 19.9234 72.5661 19.0915C72.5216 19.047 72.5286 19.0043 72.5879 18.9581C73.5976 18.2902 74.1021 17.2215 74.1016 15.7519C74.1016 14.3417 73.6824 13.2805 72.8442 12.5684C72.006 11.8563 70.8434 11.5 69.3564 11.4994L65.6436 11.495Z" fill="white"/>
</mask>
<g mask="url(#mask4_8667_388548)">
<path d="M74.3283 11.4951H65.3776V27.0813H74.3283V11.4951Z" fill="url(#paint4_radial_8667_388548)"/>
</g>
<mask id="mask5_8667_388548" style="mask-type:luminance" maskUnits="userSpaceOnUse" x="75" y="11" width="10" height="17">
<path d="M78.9818 18.108V14.3001C78.9796 14.285 78.9809 14.2695 78.9858 14.255C78.9906 14.2405 78.9988 14.2273 79.0097 14.2166C79.0205 14.2058 79.0337 14.1977 79.0483 14.193C79.0628 14.1883 79.0783 14.187 79.0934 14.1894H80.0997C80.3169 14.1848 80.5321 14.2318 80.7276 14.3266C80.9231 14.4213 81.0934 14.5611 81.2245 14.7343C81.5151 15.0982 81.6605 15.5924 81.6605 16.2167C81.6605 16.8253 81.5151 17.3116 81.2245 17.6755C81.0935 17.8489 80.9232 17.9887 80.7277 18.0836C80.5322 18.1785 80.3169 18.2257 80.0997 18.2213H79.0978C79.0826 18.2235 79.0672 18.2221 79.0526 18.2173C79.0381 18.2125 79.0248 18.2043 79.014 18.1935C79.0032 18.1826 78.995 18.1694 78.9902 18.1549C78.9854 18.1403 78.984 18.1249 78.9862 18.1097M76.114 11.4968C76.0788 11.4963 76.044 11.503 76.0115 11.5163C75.9789 11.5297 75.9495 11.5494 75.9247 11.5744C75.8995 11.5989 75.8796 11.6284 75.8662 11.6609C75.8529 11.6935 75.8464 11.7284 75.8471 11.7636V26.8179C75.8462 26.8531 75.8527 26.8881 75.866 26.9207C75.8794 26.9533 75.8994 26.9827 75.9247 27.0071C75.9494 27.0323 75.9788 27.0522 76.0113 27.0657C76.0439 27.0792 76.0788 27.0859 76.114 27.0856H78.7193C78.7545 27.0856 78.7892 27.0787 78.8217 27.0652C78.8541 27.0518 78.8836 27.032 78.9083 27.0071C78.9331 26.9823 78.9528 26.9528 78.9661 26.9203C78.9795 26.8878 78.9863 26.853 78.9862 26.8179V20.7395C78.984 20.7244 78.9854 20.7089 78.9902 20.6943C78.995 20.6798 79.0032 20.6666 79.014 20.6558C79.0248 20.6449 79.0381 20.6368 79.0526 20.6319C79.0672 20.6271 79.0826 20.6257 79.0978 20.6279H79.8546C79.8991 20.6279 79.9366 20.6584 79.9662 20.7151L81.6805 26.8606C81.697 26.929 81.7375 26.9892 81.7946 27.0302C81.8518 27.0712 81.9218 27.0902 81.9918 27.0839H84.6644C84.8274 27.0839 84.9094 27.0097 84.9094 26.8606L84.8867 26.7734L82.8385 20.205C82.8312 20.1934 82.8274 20.1799 82.8274 20.1662C82.8274 20.1525 82.8312 20.139 82.8385 20.1274C82.8553 20.103 82.8785 20.0836 82.9056 20.0716C83.5062 19.6926 83.9882 19.1524 84.2964 18.5125C84.63 17.8446 84.7972 17.0729 84.7977 16.1975C84.7977 15.2767 84.6234 14.4603 84.2746 13.7482C83.9501 13.0648 83.4354 12.4896 82.7922 12.0915C82.1355 11.694 81.3799 11.4897 80.6124 11.502L76.114 11.4968Z" fill="white"/>
</mask>
<g mask="url(#mask5_8667_388548)">
<path d="M84.9042 11.4951H75.8419V27.0813H84.9042V11.4951Z" fill="url(#paint5_radial_8667_388548)"/>
</g>
<mask id="mask6_8667_388548" style="mask-type:luminance" maskUnits="userSpaceOnUse" x="85" y="11" width="11" height="17">
<path d="M89.6912 22.0492L90.694 15.9699C90.7088 15.9255 90.7306 15.9037 90.7602 15.9037C90.7899 15.9037 90.8126 15.9255 90.8274 15.9699L91.8737 22.0492C91.8886 22.1233 91.8589 22.16 91.7865 22.16H89.781C89.7218 22.16 89.6938 22.1233 89.6938 22.0492M89.3381 11.4985C89.3029 11.4953 89.2675 11.4991 89.2338 11.5097C89.2001 11.5204 89.1689 11.5376 89.142 11.5604C89.1151 11.5832 89.0929 11.6111 89.0769 11.6426C89.0608 11.674 89.0512 11.7084 89.0486 11.7436L85.7753 26.7953C85.7311 26.9883 85.8055 27.0848 85.9985 27.0848H88.603C88.7818 27.0848 88.8777 27.0028 88.8925 26.8397L89.2491 24.7017C89.2491 24.6276 89.2936 24.591 89.3826 24.591H92.2103C92.2975 24.591 92.3437 24.6276 92.3437 24.7017L92.7004 26.8397C92.7155 27.0025 92.812 27.0842 92.9898 27.0848H95.6615C95.8246 27.0848 95.9065 27.0176 95.9065 26.8842L95.8847 26.797L92.6332 11.7453C92.6305 11.7101 92.6208 11.6759 92.6047 11.6445C92.5886 11.6131 92.5665 11.5852 92.5396 11.5624C92.5127 11.5396 92.4815 11.5224 92.4479 11.5117C92.4143 11.5011 92.3788 11.4972 92.3437 11.5003L89.3381 11.4985Z" fill="white"/>
</mask>
<g mask="url(#mask6_8667_388548)">
<path d="M95.9039 11.4951H85.7282V27.0813H95.9039V11.4951Z" fill="url(#paint6_radial_8667_388548)"/>
</g>
<mask id="mask7_8667_388548" style="mask-type:luminance" maskUnits="userSpaceOnUse" x="96" y="11" width="9" height="17">
<path d="M97.4177 12.4525C96.6311 13.2081 96.2379 14.2176 96.2379 15.4808C96.2379 16.2824 96.4013 16.9875 96.7279 17.5961C97.0292 18.1725 97.4284 18.6921 97.9077 19.1316C98.4828 19.6388 99.0847 20.1147 99.7109 20.5573C100.572 21.181 101.151 21.6522 101.448 21.9707C101.741 22.2797 101.901 22.6915 101.893 23.1173C101.893 23.5481 101.775 23.8969 101.537 24.1637C101.427 24.2923 101.291 24.395 101.137 24.4643C100.983 24.5337 100.815 24.568 100.647 24.5648C100.476 24.567 100.307 24.5301 100.152 24.4567C99.9979 24.3834 99.8625 24.2757 99.7563 24.1419C99.5179 23.8605 99.399 23.4894 99.3996 23.0284V22.5384C99.4003 22.5031 99.3939 22.4681 99.3807 22.4354C99.3676 22.4027 99.348 22.373 99.3231 22.3481C99.2981 22.3232 99.2684 22.3036 99.2357 22.2904C99.203 22.2772 99.168 22.2708 99.1328 22.2716H96.5719C96.5366 22.2708 96.5016 22.2772 96.4689 22.2904C96.4362 22.3036 96.4065 22.3232 96.3816 22.3481C96.3567 22.373 96.3371 22.4027 96.3239 22.4354C96.3108 22.4681 96.3043 22.5031 96.3051 22.5384V23.1845C96.2904 23.9283 96.4746 24.6624 96.8387 25.3112C97.1942 25.9259 97.7203 26.4245 98.3533 26.7464C99.0061 27.0882 99.7632 27.2591 100.625 27.2591C101.93 27.2591 102.984 26.8732 103.786 26.1012C104.589 25.3292 104.99 24.2901 104.988 22.9839C104.988 22.2713 104.858 21.6588 104.598 21.1467C104.324 20.6162 103.954 20.1409 103.507 19.7446C103.042 19.3208 102.349 18.7686 101.426 18.0879C100.594 17.4793 100.038 17.0044 99.7563 16.6631C99.4782 16.3334 99.3281 15.9146 99.3334 15.4834C99.3334 15.023 99.4444 14.6629 99.6664 14.403C99.7727 14.2762 99.9065 14.1752 100.058 14.1077C100.209 14.0402 100.373 14.0079 100.538 14.0132C100.71 14.0083 100.881 14.0429 101.037 14.1144C101.194 14.1859 101.331 14.2924 101.44 14.4257C101.673 14.7001 101.789 15.0674 101.789 15.5278V16.1286C101.789 16.1996 101.817 16.2677 101.867 16.3179C101.917 16.3681 101.985 16.3963 102.056 16.3963H104.617C104.688 16.3963 104.756 16.3681 104.806 16.3179C104.856 16.2677 104.884 16.1996 104.884 16.1286V15.5941C104.884 14.3181 104.487 13.2866 103.692 12.4995C102.898 11.7125 101.847 11.3189 100.542 11.3189C99.2508 11.3189 98.2117 11.6968 97.4246 12.4525" fill="white"/>
</mask>
<g mask="url(#mask7_8667_388548)">
<path d="M104.987 11.3171H96.2371V27.2591H104.987V11.3171Z" fill="url(#paint7_radial_8667_388548)"/>
</g>
<mask id="mask8_8667_388548" style="mask-type:luminance" maskUnits="userSpaceOnUse" x="110" y="11" width="11" height="17">
<path d="M114.205 22.0492L115.207 15.9699C115.222 15.9254 115.245 15.9036 115.274 15.9036C115.304 15.9036 115.327 15.9254 115.342 15.9699L116.388 22.0492C116.403 22.1233 116.373 22.1599 116.301 22.1599H114.295C114.236 22.1599 114.208 22.1233 114.208 22.0492M113.852 11.4985C113.817 11.4953 113.782 11.4991 113.748 11.5097C113.714 11.5203 113.683 11.5375 113.656 11.5603C113.629 11.5831 113.607 11.6111 113.591 11.6425C113.575 11.674 113.565 11.7083 113.563 11.7435L110.287 26.7917C110.242 26.9847 110.317 27.0812 110.51 27.0812H113.115C113.293 27.0812 113.389 26.9996 113.404 26.8362L113.761 24.6982C113.761 24.6241 113.805 24.5874 113.894 24.5874H116.722C116.809 24.5874 116.855 24.6241 116.855 24.6982L117.212 26.8362C117.226 26.999 117.322 27.0806 117.501 27.0812H120.173C120.336 27.0812 120.418 27.0141 120.418 26.8807L120.395 26.7935L117.145 11.7418C117.142 11.7066 117.132 11.6724 117.116 11.641C117.1 11.6096 117.078 11.5817 117.051 11.5589C117.024 11.5361 116.993 11.5189 116.959 11.5082C116.926 11.4976 116.89 11.4937 116.855 11.4968L113.852 11.4985Z" fill="white"/>
</mask>
<g mask="url(#mask8_8667_388548)">
<path d="M120.417 11.495H110.242V27.0812H120.417V11.495Z" fill="url(#paint8_radial_8667_388548)"/>
</g>
<mask id="mask9_8667_388548" style="mask-type:luminance" maskUnits="userSpaceOnUse" x="121" y="11" width="9" height="17">
<path d="M121.954 11.4951C121.918 11.4949 121.884 11.5018 121.851 11.5151C121.819 11.5285 121.789 11.5481 121.764 11.5729C121.739 11.5977 121.72 11.6271 121.706 11.6596C121.693 11.692 121.686 11.7268 121.686 11.7619V26.8179C121.688 26.8879 121.716 26.9544 121.766 27.0033C121.816 27.0522 121.884 27.0795 121.954 27.0795H129.613C129.648 27.0795 129.683 27.0726 129.715 27.0591C129.748 27.0457 129.777 27.0259 129.802 27.0011C129.827 26.9762 129.846 26.9467 129.86 26.9142C129.873 26.8817 129.88 26.8469 129.88 26.8118V24.652C129.88 24.6168 129.874 24.5818 129.861 24.5491C129.848 24.5164 129.828 24.4867 129.803 24.4617C129.778 24.4368 129.748 24.4172 129.716 24.404C129.683 24.3909 129.648 24.3845 129.613 24.3852H124.937C124.921 24.3874 124.906 24.3861 124.891 24.3812C124.877 24.3764 124.864 24.3682 124.853 24.3573C124.842 24.3465 124.834 24.3333 124.829 24.3187C124.825 24.3042 124.823 24.2887 124.826 24.2736V11.7619C124.826 11.7268 124.819 11.6921 124.805 11.6598C124.792 11.6274 124.772 11.598 124.748 11.5732C124.723 11.5484 124.693 11.5288 124.661 11.5154C124.629 11.502 124.594 11.4951 124.559 11.4951H121.954Z" fill="white"/>
</mask>
<g mask="url(#mask9_8667_388548)">
<path d="M129.881 11.4951H121.687V27.0813H129.881V11.4951Z" fill="url(#paint9_radial_8667_388548)"/>
</g>
<mask id="mask10_8667_388548" style="mask-type:luminance" maskUnits="userSpaceOnUse" x="130" y="11" width="16" height="17">
<path d="M142.194 11.4951C142.019 11.4951 141.919 11.5761 141.904 11.7401L140.77 19.756C140.756 19.8153 140.733 19.8432 140.704 19.8432C140.675 19.8432 140.652 19.8144 140.637 19.756L139.323 11.7401C139.308 11.5761 139.212 11.4951 139.034 11.4951H136.785C136.61 11.4951 136.51 11.5761 136.495 11.7401L135.295 19.7551C135.28 19.8144 135.258 19.8423 135.228 19.8423C135.199 19.8423 135.176 19.8135 135.161 19.7551L133.892 11.7392C133.877 11.5753 133.781 11.4942 133.603 11.4942H130.882C130.719 11.4942 130.637 11.5605 130.637 11.6947L130.66 11.7819L133.666 26.8336C133.668 26.8688 133.678 26.903 133.694 26.9344C133.71 26.9658 133.732 26.9937 133.759 27.0165C133.786 27.0393 133.818 27.0565 133.851 27.0672C133.885 27.0779 133.92 27.0817 133.955 27.0786H136.341C136.52 27.0786 136.616 26.9967 136.631 26.8336L137.811 18.5945C137.826 18.5361 137.848 18.5073 137.878 18.5073C137.909 18.5073 137.93 18.5378 137.944 18.5945L139.258 26.8336C139.274 26.9964 139.37 27.0781 139.547 27.0786H141.952C142.126 27.0786 142.227 26.9967 142.241 26.8336L145.07 11.7819C145.099 11.5892 145.018 11.4924 144.825 11.4924L142.194 11.4951Z" fill="white"/>
</mask>
<g mask="url(#mask10_8667_388548)">
<path d="M145.095 11.4951H130.637V27.0813H145.095V11.4951Z" fill="url(#paint10_radial_8667_388548)"/>
</g>
<mask id="mask11_8667_388548" style="mask-type:luminance" maskUnits="userSpaceOnUse" x="144" y="11" width="11" height="17">
<path d="M148.094 22.0492L149.096 15.9699C149.111 15.9255 149.133 15.9037 149.163 15.9037C149.194 15.9037 149.215 15.9255 149.229 15.9699L150.276 22.0492C150.29 22.1233 150.26 22.16 150.189 22.16H148.183C148.124 22.16 148.096 22.1233 148.096 22.0492M147.74 11.4985C147.705 11.4953 147.669 11.4991 147.636 11.5097C147.602 11.5204 147.571 11.5376 147.544 11.5604C147.517 11.5832 147.495 11.6111 147.479 11.6426C147.463 11.674 147.453 11.7084 147.451 11.7436L144.177 26.7953C144.132 26.9883 144.207 27.0848 144.4 27.0848H147.005C147.183 27.0848 147.279 27.0031 147.294 26.8397L147.65 24.7017C147.65 24.6276 147.696 24.591 147.785 24.591H150.612C150.699 24.591 150.746 24.6276 150.746 24.7017L151.102 26.8397C151.116 27.0028 151.213 27.0848 151.391 27.0848H154.063C154.227 27.0848 154.308 27.0176 154.308 26.8842L154.286 26.797L151.035 11.7453C151.032 11.7101 151.023 11.6759 151.007 11.6445C150.991 11.6131 150.968 11.5852 150.942 11.5624C150.915 11.5396 150.883 11.5224 150.85 11.5117C150.816 11.5011 150.781 11.4972 150.746 11.5003L147.74 11.4985Z" fill="white"/>
</mask>
<g mask="url(#mask11_8667_388548)">
<path d="M154.306 11.4951H144.13V27.0813H154.306V11.4951Z" fill="url(#paint11_radial_8667_388548)"/>
</g>
<mask id="mask12_8667_388548" style="mask-type:luminance" maskUnits="userSpaceOnUse" x="155" y="11" width="10" height="17">
<path d="M158.714 24.2753V14.3001C158.712 14.285 158.714 14.2696 158.719 14.2552C158.724 14.2408 158.732 14.2277 158.743 14.2169C158.753 14.2062 158.767 14.1981 158.781 14.1934C158.796 14.1886 158.811 14.1872 158.826 14.1894H159.805C160.003 14.1823 160.199 14.2231 160.377 14.3083C160.556 14.3935 160.711 14.5205 160.83 14.6785C161.083 15.0058 161.209 15.4511 161.209 16.0144V22.561C161.193 23.0958 161.06 23.5263 160.808 23.8524C160.695 24.0076 160.548 24.1345 160.378 24.2233C160.208 24.3121 160.02 24.3603 159.828 24.3642L158.826 24.3869C158.811 24.3891 158.795 24.3877 158.781 24.3829C158.766 24.378 158.753 24.3699 158.742 24.359C158.731 24.3482 158.723 24.335 158.718 24.3205C158.714 24.3059 158.712 24.2904 158.714 24.2753ZM155.842 11.495C155.807 11.4946 155.772 11.5012 155.74 11.5146C155.707 11.5279 155.678 11.5476 155.653 11.5726C155.628 11.5971 155.608 11.6266 155.594 11.6592C155.581 11.6917 155.575 11.7267 155.575 11.7618V26.8179C155.574 26.8531 155.581 26.8881 155.594 26.9207C155.608 26.9532 155.628 26.9827 155.653 27.0071C155.678 27.0322 155.707 27.0522 155.74 27.0656C155.772 27.0791 155.807 27.0859 155.842 27.0856H159.872C161.223 27.0856 162.306 26.692 163.123 25.905C163.94 25.1179 164.348 24.0715 164.348 22.7659V15.8191C164.348 14.5129 163.94 13.4665 163.123 12.68C162.306 11.8935 161.223 11.5002 159.872 11.5002L155.842 11.495Z" fill="white"/>
</mask>
<g mask="url(#mask12_8667_388548)">
<path d="M164.347 11.495H155.574V27.0812H164.347V11.495Z" fill="url(#paint12_radial_8667_388548)"/>
</g>
<mask id="mask13_8667_388548" style="mask-type:luminance" maskUnits="userSpaceOnUse" x="166" y="11" width="4" height="17">
<path d="M166.441 11.495C166.406 11.4943 166.371 11.5008 166.338 11.5139C166.305 11.5271 166.275 11.5467 166.251 11.5716C166.226 11.5965 166.206 11.6262 166.193 11.6589C166.18 11.6916 166.173 11.7266 166.174 11.7619V26.8179C166.174 26.853 166.181 26.8878 166.194 26.9203C166.207 26.9528 166.227 26.9823 166.252 27.0072C166.277 27.032 166.306 27.0518 166.339 27.0652C166.371 27.0787 166.406 27.0856 166.441 27.0856H169.046C169.081 27.0856 169.116 27.0787 169.149 27.0652C169.181 27.0518 169.21 27.032 169.235 27.0072C169.26 26.9823 169.28 26.9528 169.293 26.9203C169.306 26.8878 169.313 26.853 169.313 26.8179V11.7619C169.314 11.7266 169.307 11.6916 169.294 11.6589C169.281 11.6262 169.261 11.5965 169.236 11.5716C169.212 11.5467 169.182 11.5271 169.149 11.5139C169.116 11.5008 169.081 11.4943 169.046 11.495H166.441Z" fill="white"/>
</mask>
<g mask="url(#mask13_8667_388548)">
<path d="M169.313 11.4951H166.173V27.0813H169.313V11.4951Z" fill="url(#paint13_radial_8667_388548)"/>
</g>
<path d="M49.5952 39.9077C49.0476 39.3898 48.7738 38.6989 48.7738 37.8351V32.7411C48.7738 31.8779 49.0476 31.1873 49.5952 30.6693C50.1428 30.1514 50.8694 29.8927 51.7751 29.8933C52.6796 29.8933 53.408 30.1549 53.9602 30.6781C54.5124 31.2012 54.7888 31.8945 54.7894 32.7577V33.3297C54.7898 33.3535 54.7853 33.3772 54.7761 33.3993C54.767 33.4213 54.7534 33.4413 54.7362 33.4579C54.7197 33.475 54.6997 33.4886 54.6777 33.4978C54.6556 33.5069 54.6319 33.5114 54.6081 33.5111H52.845C52.8211 33.5114 52.7974 33.5069 52.7753 33.4978C52.7533 33.4886 52.7334 33.475 52.7168 33.4579C52.6998 33.4412 52.6864 33.4212 52.6774 33.3992C52.6684 33.3771 52.664 33.3535 52.6645 33.3297V32.7272C52.6765 32.4622 52.5905 32.2021 52.4229 31.9965C52.3428 31.9044 52.2429 31.8315 52.1308 31.7832C52.0186 31.7349 51.8971 31.7124 51.7751 31.7174C51.6554 31.7133 51.5363 31.7363 51.4267 31.7846C51.3171 31.8329 51.2198 31.9053 51.142 31.9965C50.9741 32.2019 50.8881 32.4621 50.9005 32.7272V37.8517C50.8881 38.1167 50.9741 38.3769 51.142 38.5823C51.2198 38.6734 51.3171 38.7457 51.4267 38.7938C51.5363 38.842 51.6554 38.8648 51.7751 38.8605C51.897 38.8657 52.0186 38.8434 52.1307 38.7953C52.2429 38.7471 52.3427 38.6743 52.4229 38.5823C52.5905 38.3767 52.6765 38.1166 52.6645 37.8517V36.6449C52.6659 36.6346 52.665 36.6241 52.6617 36.6142C52.6584 36.6043 52.6528 36.5954 52.6455 36.588C52.6381 36.5807 52.6292 36.5751 52.6193 36.5718C52.6094 36.5685 52.5989 36.5676 52.5886 36.569H51.9259C51.9021 36.5691 51.8786 36.5645 51.8566 36.5555C51.8346 36.5465 51.8146 36.5332 51.7977 36.5165C51.7809 36.4997 51.7675 36.4797 51.7584 36.4578C51.7493 36.4358 51.7446 36.4123 51.7446 36.3885V35.0474C51.7442 35.0236 51.7487 34.9999 51.7578 34.9778C51.767 34.9558 51.7806 34.9358 51.7977 34.9193C51.8143 34.9021 51.8343 34.8885 51.8563 34.8794C51.8784 34.8702 51.902 34.8657 51.9259 34.8661H54.6081C54.6562 34.8661 54.7023 34.8852 54.7363 34.9192C54.7703 34.9532 54.7894 34.9993 54.7894 35.0474V37.8377C54.7894 38.7021 54.513 39.393 53.9602 39.9103C53.4074 40.4277 52.679 40.6864 51.7751 40.6864C50.8711 40.6864 50.1445 40.4277 49.5952 39.9103" fill="#636466"/>
<path d="M61.4398 31.788C61.4231 31.8051 61.4032 31.8185 61.3811 31.8275C61.3591 31.8365 61.3354 31.8409 61.3116 31.8404H58.1621C58.1518 31.8389 58.1413 31.8399 58.1315 31.8432C58.1216 31.8465 58.1126 31.852 58.1053 31.8594C58.0979 31.8667 58.0924 31.8757 58.0891 31.8856C58.0858 31.8954 58.0848 31.9059 58.0863 31.9162V34.2967C58.0848 34.307 58.0858 34.3175 58.0891 34.3273C58.0924 34.3372 58.0979 34.3462 58.1053 34.3535C58.1126 34.3609 58.1216 34.3664 58.1315 34.3697C58.1413 34.373 58.1518 34.374 58.1621 34.3725H59.9706C60.0184 34.3725 60.0643 34.3915 60.0982 34.4254C60.132 34.4592 60.1511 34.5051 60.1511 34.553V36.0153C60.1515 36.0391 60.1472 36.0628 60.1382 36.0848C60.1292 36.1068 60.1158 36.1268 60.0988 36.1435C60.0821 36.1605 60.0621 36.1739 60.0401 36.1829C60.018 36.1919 59.9944 36.1963 59.9706 36.1958H58.1621C58.1518 36.1943 58.1413 36.1953 58.1315 36.1986C58.1216 36.2019 58.1126 36.2074 58.1053 36.2148C58.0979 36.2222 58.0924 36.2311 58.0891 36.241C58.0858 36.2509 58.0848 36.2613 58.0863 36.2716V38.6678C58.0848 38.678 58.0857 38.6885 58.089 38.6984C58.0923 38.7082 58.0979 38.7171 58.1053 38.7244C58.1126 38.7317 58.1216 38.7372 58.1315 38.7404C58.1414 38.7436 58.1519 38.7444 58.1621 38.7428H61.3116C61.3354 38.7428 61.359 38.7475 61.3809 38.7566C61.4029 38.7657 61.4228 38.7791 61.4396 38.7959C61.4563 38.8128 61.4696 38.8328 61.4786 38.8548C61.4877 38.8768 61.4922 38.9004 61.4921 38.9241V40.3855C61.4922 40.4093 61.4877 40.4329 61.4786 40.4549C61.4696 40.4769 61.4563 40.4969 61.4396 40.5137C61.4228 40.5306 61.4029 40.544 61.3809 40.5531C61.359 40.5622 61.3354 40.5669 61.3116 40.5669H56.1427C56.0946 40.5669 56.0485 40.5478 56.0144 40.5138C55.9804 40.4798 55.9613 40.4336 55.9613 40.3855V30.1941C55.9615 30.1462 55.9807 30.1003 56.0147 30.0664C56.0487 30.0326 56.0947 30.0136 56.1427 30.0136H61.3116C61.3353 30.0136 61.3588 30.0183 61.3807 30.0274C61.4026 30.0364 61.4225 30.0497 61.4393 30.0665C61.456 30.0833 61.4693 30.1031 61.4784 30.125C61.4875 30.1469 61.4921 30.1704 61.4921 30.1941V31.6564C61.4926 31.6802 61.4882 31.7038 61.4792 31.7259C61.4702 31.7479 61.4568 31.7679 61.4398 31.7846" fill="#636466"/>
<path d="M66.9262 30.0668C66.9428 30.0497 66.9627 30.0361 66.9848 30.0269C67.0068 30.0178 67.0305 30.0133 67.0544 30.0136H68.8027C68.8265 30.0133 68.8502 30.0178 68.8723 30.0269C68.8943 30.0361 68.9142 30.0497 68.9308 30.0668C68.9479 30.0833 68.9614 30.1031 68.9706 30.125C68.9797 30.1469 68.9843 30.1704 68.984 30.1941V40.3821C68.9844 40.4059 68.9799 40.4296 68.9707 40.4517C68.9616 40.4737 68.948 40.4937 68.9308 40.5103C68.9142 40.5274 68.8943 40.541 68.8723 40.5501C68.8502 40.5593 68.8265 40.5638 68.8027 40.5634H66.8129C66.7676 40.566 66.7229 40.5522 66.6871 40.5245C66.6512 40.4967 66.6265 40.457 66.6175 40.4126L64.7533 34.5783C64.7428 34.5478 64.7254 34.5356 64.7001 34.5408C64.6883 34.543 64.6778 34.5496 64.6708 34.5594C64.6638 34.5692 64.6608 34.5813 64.6626 34.5932L64.6774 40.3803C64.6775 40.4041 64.673 40.4277 64.664 40.4497C64.6549 40.4717 64.6417 40.4917 64.6249 40.5085C64.6081 40.5254 64.5882 40.5387 64.5662 40.5479C64.5443 40.557 64.5207 40.5617 64.4969 40.5617H62.7478C62.7239 40.5621 62.7002 40.5576 62.6782 40.5484C62.6561 40.5393 62.6362 40.5257 62.6196 40.5085C62.6026 40.4918 62.5892 40.4719 62.5802 40.4498C62.5712 40.4278 62.5668 40.4041 62.5673 40.3803V30.1941C62.5669 30.1705 62.5714 30.147 62.5804 30.1251C62.5894 30.1032 62.6027 30.0834 62.6196 30.0668C62.6362 30.0497 62.6561 30.0361 62.6782 30.0269C62.7002 30.0178 62.7239 30.0133 62.7478 30.0136H64.7219C64.7672 30.0112 64.8119 30.0251 64.8479 30.0528C64.8839 30.0804 64.9088 30.1201 64.9181 30.1645L66.8015 35.997C66.812 36.0267 66.8294 36.0397 66.8547 36.0345C66.88 36.0293 66.8922 36.0118 66.8922 35.9813L66.8774 30.1941C66.877 30.1705 66.8814 30.147 66.8904 30.1251C66.8994 30.1032 66.9128 30.0834 66.9297 30.0668" fill="#636466"/>
<path d="M75.7879 31.788C75.7712 31.8051 75.7512 31.8185 75.7292 31.8275C75.7071 31.8365 75.6835 31.8409 75.6597 31.8404H72.5137C72.5034 31.8391 72.493 31.8401 72.4833 31.8435C72.4735 31.8469 72.4647 31.8524 72.4574 31.8598C72.4502 31.8671 72.4447 31.876 72.4415 31.8858C72.4382 31.8956 72.4372 31.906 72.4387 31.9162V34.2967C72.4372 34.3069 72.4382 34.3173 72.4415 34.3271C72.4447 34.3369 72.4502 34.3458 72.4574 34.3531C72.4647 34.3605 72.4735 34.366 72.4833 34.3694C72.493 34.3728 72.5034 34.3738 72.5137 34.3725H74.323C74.3708 34.3727 74.4165 34.3919 74.4503 34.4257C74.4841 34.4595 74.5032 34.5052 74.5035 34.553V36.0153C74.5039 36.0392 74.4993 36.0629 74.4902 36.0849C74.481 36.107 74.4674 36.1269 74.4503 36.1435C74.4337 36.1604 74.4139 36.1737 74.392 36.1827C74.3701 36.1917 74.3466 36.1962 74.323 36.1958H72.5137C72.5034 36.1945 72.493 36.1956 72.4833 36.1989C72.4735 36.2023 72.4647 36.2078 72.4574 36.2152C72.4502 36.2225 72.4447 36.2314 72.4415 36.2412C72.4382 36.251 72.4372 36.2614 72.4387 36.2716V38.6678C72.4372 38.678 72.4382 38.6883 72.4414 38.6981C72.4447 38.7079 72.4501 38.7168 72.4574 38.724C72.4647 38.7313 72.4736 38.7368 72.4833 38.74C72.4931 38.7433 72.5035 38.7442 72.5137 38.7428H75.664C75.6878 38.7428 75.7114 38.7475 75.7333 38.7566C75.7553 38.7657 75.7752 38.7791 75.792 38.7959C75.8087 38.8128 75.822 38.8328 75.8311 38.8548C75.8401 38.8768 75.8446 38.9004 75.8445 38.9241V40.3855C75.8446 40.4093 75.8401 40.4329 75.8311 40.4549C75.822 40.4769 75.8087 40.4969 75.792 40.5137C75.7752 40.5306 75.7553 40.544 75.7333 40.5531C75.7114 40.5622 75.6878 40.5669 75.664 40.5669H70.4942C70.4463 40.5667 70.4004 40.5475 70.3665 40.5135C70.3327 40.4795 70.3137 40.4335 70.3137 40.3855V30.1941C70.3139 30.1463 70.333 30.1005 70.3668 30.0667C70.4006 30.0329 70.4464 30.0138 70.4942 30.0136H75.664C75.6877 30.0136 75.7112 30.0183 75.7331 30.0274C75.755 30.0364 75.7749 30.0497 75.7917 30.0665C75.8084 30.0833 75.8217 30.1031 75.8308 30.125C75.8399 30.1469 75.8445 30.1704 75.8445 30.1941V31.6564C75.845 31.6802 75.8406 31.7038 75.8316 31.7259C75.8226 31.7479 75.8092 31.7679 75.7922 31.7846" fill="#636466"/>
<path d="M80.8592 40.4126L79.6986 36.2525C79.6786 36.2133 79.6533 36.1923 79.6228 36.1923H79.1109C79.1006 36.1909 79.0901 36.1918 79.0803 36.1951C79.0704 36.1984 79.0614 36.204 79.0541 36.2113C79.0467 36.2187 79.0412 36.2277 79.0379 36.2375C79.0346 36.2474 79.0336 36.2579 79.0351 36.2682V40.3821C79.0352 40.4059 79.0306 40.4294 79.0216 40.4514C79.0125 40.4734 78.9993 40.4934 78.9825 40.5103C78.9657 40.5271 78.9458 40.5405 78.9238 40.5496C78.9019 40.5587 78.8783 40.5634 78.8546 40.5634H77.0915C77.0434 40.5634 76.9972 40.5443 76.9632 40.5103C76.9292 40.4763 76.9101 40.4302 76.9101 40.3821V30.1941C76.9103 30.1462 76.9295 30.1003 76.9635 30.0665C76.9975 30.0326 77.0435 30.0136 77.0915 30.0136H80.1355C80.6556 30.0048 81.1677 30.1433 81.6126 30.413C82.0475 30.6833 82.3953 31.0732 82.6144 31.5361C82.8583 32.0538 82.9794 32.6207 82.9684 33.1928C82.9803 33.7353 82.8644 34.2729 82.6301 34.7623C82.4209 35.1953 82.0943 35.5609 81.6875 35.8174C81.6694 35.8261 81.6538 35.8393 81.6422 35.8557C81.6374 35.8636 81.6349 35.8727 81.6349 35.8819C81.6349 35.8911 81.6374 35.9002 81.6422 35.9081L83.0286 40.355L83.0443 40.4152C83.0443 40.5155 82.9885 40.5661 82.8787 40.5661H81.0702C81.0228 40.5705 80.9753 40.5577 80.9365 40.53C80.8978 40.5023 80.8703 40.4615 80.8592 40.4152M79.0351 31.9154V34.4911C79.0336 34.5014 79.0346 34.512 79.0379 34.5218C79.0412 34.5317 79.0467 34.5406 79.0541 34.548C79.0614 34.5554 79.0704 34.5609 79.0803 34.5642C79.0901 34.5675 79.1006 34.5685 79.1109 34.567H79.7884C79.9357 34.5702 80.0816 34.5384 80.2141 34.4741C80.3466 34.4098 80.4619 34.3149 80.5505 34.1973C80.7458 33.9514 80.8435 33.6224 80.8435 33.2102C80.8435 32.7882 80.7458 32.4543 80.5505 32.2084C80.4618 32.0908 80.3465 31.996 80.214 31.9318C80.0815 31.8675 79.9356 31.8356 79.7884 31.8387H79.1109C79.1006 31.8372 79.0901 31.8381 79.0803 31.8414C79.0704 31.8447 79.0614 31.8503 79.0541 31.8577C79.0467 31.865 79.0412 31.874 79.0379 31.8839C79.0346 31.8937 79.0336 31.9042 79.0351 31.9145" fill="#636466"/>
<path d="M88.3187 40.3978L88.0772 38.9503C88.0772 38.9006 88.0476 38.8754 87.99 38.8754H86.0761C86.0159 38.8754 85.9889 38.9006 85.9889 38.9503L85.7482 40.3978C85.7472 40.4219 85.7412 40.4456 85.7306 40.4672C85.7199 40.4889 85.7049 40.5081 85.6865 40.5237C85.668 40.5393 85.6466 40.5508 85.6234 40.5577C85.6003 40.5645 85.576 40.5665 85.552 40.5635H83.7889C83.6573 40.5635 83.6076 40.4981 83.6381 40.3673L85.8528 30.1793C85.8548 30.1556 85.8615 30.1324 85.8724 30.1112C85.8833 30.09 85.8984 30.0712 85.9166 30.0558C85.9348 30.0404 85.9559 30.0288 85.9786 30.0215C86.0013 30.0143 86.0253 30.0116 86.049 30.0137H88.0833C88.1071 30.0116 88.131 30.0143 88.1537 30.0215C88.1765 30.0288 88.1975 30.0404 88.2158 30.0558C88.234 30.0712 88.249 30.09 88.2599 30.1112C88.2709 30.1324 88.2775 30.1556 88.2795 30.1793L90.476 40.3673L90.4908 40.4274C90.4908 40.5146 90.435 40.5635 90.3242 40.5635H88.5167C88.4927 40.5665 88.4684 40.5645 88.4453 40.5577C88.4221 40.5508 88.4006 40.5393 88.3822 40.5237C88.3638 40.5081 88.3488 40.4889 88.3381 40.4672C88.3275 40.4456 88.3215 40.4219 88.3205 40.3978M86.3464 37.2326H87.7023C87.7528 37.2326 87.7729 37.2073 87.7633 37.1576L87.0544 33.0428C87.0448 33.0132 87.0291 32.9975 87.0091 32.9975C86.989 32.9975 86.9742 33.0132 86.9637 33.0428L86.2853 37.1576C86.2853 37.2073 86.3054 37.2326 86.3464 37.2326Z" fill="#636466"/>
<path d="M91.4003 40.5076C91.3833 40.4909 91.3698 40.471 91.3608 40.4489C91.3518 40.4269 91.3474 40.4032 91.3479 40.3794V30.1941C91.3479 30.1704 91.3526 30.1469 91.3617 30.125C91.3707 30.1031 91.384 30.0833 91.4008 30.0665C91.4176 30.0497 91.4375 30.0364 91.4594 30.0274C91.4813 30.0183 91.5047 30.0136 91.5284 30.0136H93.2915C93.3152 30.0136 93.3387 30.0183 93.3606 30.0274C93.3825 30.0364 93.4024 30.0497 93.4192 30.0665C93.4359 30.0833 93.4492 30.1031 93.4583 30.125C93.4674 30.1469 93.472 30.1704 93.472 30.1941V38.6643C93.4705 38.6746 93.4715 38.685 93.4748 38.6949C93.4781 38.7047 93.4836 38.7137 93.491 38.721C93.4984 38.7282 93.5074 38.7337 93.5173 38.7369C93.5271 38.7401 93.5376 38.7409 93.5479 38.7393H96.7122C96.7361 38.7389 96.7598 38.7434 96.7818 38.7526C96.8039 38.7617 96.8238 38.7753 96.8404 38.7925C96.8576 38.8091 96.8711 38.829 96.8803 38.851C96.8894 38.8731 96.894 38.8968 96.8936 38.9207V40.3821C96.894 40.4059 96.8894 40.4296 96.8803 40.4517C96.8711 40.4737 96.8576 40.4936 96.8404 40.5102C96.8238 40.5274 96.8039 40.541 96.7818 40.5501C96.7598 40.5593 96.7361 40.5638 96.7122 40.5634H91.5284C91.5046 40.5638 91.4809 40.5593 91.4588 40.5501C91.4368 40.541 91.4169 40.5274 91.4003 40.5102" fill="#636466"/>
<path d="M106.757 30.0668C106.774 30.0834 106.787 30.1032 106.796 30.1251C106.805 30.147 106.81 30.1705 106.809 30.1941V31.6564C106.81 31.6802 106.806 31.7039 106.797 31.7259C106.788 31.748 106.774 31.7679 106.757 31.7846C106.74 31.8016 106.72 31.815 106.698 31.824C106.676 31.833 106.653 31.8374 106.629 31.8369H104.746C104.735 31.8355 104.725 31.8364 104.715 31.8397C104.705 31.843 104.696 31.8486 104.689 31.8559C104.681 31.8633 104.676 31.8722 104.672 31.8821C104.669 31.892 104.668 31.9025 104.67 31.9128V40.3821C104.67 40.4059 104.665 40.4294 104.656 40.4514C104.647 40.4734 104.634 40.4934 104.617 40.5103C104.6 40.5271 104.58 40.5405 104.558 40.5496C104.536 40.5587 104.513 40.5634 104.489 40.5634H102.726C102.678 40.5634 102.632 40.5443 102.598 40.5103C102.564 40.4763 102.545 40.4302 102.545 40.3821V31.9128C102.546 31.9025 102.545 31.8921 102.542 31.8823C102.539 31.8725 102.533 31.8636 102.526 31.8563C102.519 31.849 102.51 31.8434 102.5 31.84C102.49 31.8367 102.48 31.8356 102.47 31.8369H100.661C100.638 31.837 100.614 31.8324 100.592 31.8234C100.57 31.8144 100.55 31.8011 100.533 31.7843C100.516 31.7676 100.503 31.7476 100.494 31.7257C100.485 31.7037 100.48 31.6802 100.48 31.6564V30.1941C100.48 30.1462 100.499 30.1003 100.533 30.0664C100.567 30.0326 100.613 30.0136 100.661 30.0136H106.629C106.653 30.0133 106.677 30.0178 106.699 30.0269C106.721 30.0361 106.741 30.0497 106.757 30.0668Z" fill="#636466"/>
<path d="M111.783 40.4126L110.623 36.2525C110.602 36.2133 110.577 36.1923 110.547 36.1923H110.035C110.025 36.1909 110.014 36.1918 110.004 36.1951C109.994 36.1984 109.985 36.204 109.978 36.2113C109.971 36.2187 109.965 36.2277 109.962 36.2375C109.958 36.2474 109.958 36.2579 109.959 36.2682V40.3821C109.959 40.4059 109.954 40.4294 109.945 40.4514C109.936 40.4734 109.923 40.4934 109.906 40.5103C109.89 40.5271 109.87 40.5405 109.848 40.5496C109.826 40.5587 109.802 40.5634 109.778 40.5634H108.015C107.992 40.5634 107.968 40.5587 107.946 40.5496C107.924 40.5405 107.904 40.5271 107.887 40.5103C107.871 40.4934 107.857 40.4734 107.848 40.4514C107.839 40.4294 107.835 40.4059 107.835 40.3821V30.1941C107.835 30.1704 107.84 30.147 107.849 30.1251C107.858 30.1032 107.871 30.0833 107.888 30.0665C107.905 30.0498 107.924 30.0365 107.946 30.0274C107.968 30.0183 107.992 30.0136 108.015 30.0136H111.059C111.58 30.0048 112.092 30.1433 112.536 30.413C112.971 30.6833 113.319 31.0732 113.538 31.5361C113.782 32.0538 113.903 32.6207 113.892 33.1928C113.904 33.7353 113.788 34.2729 113.554 34.7623C113.345 35.1953 113.018 35.5609 112.611 35.8174C112.593 35.8258 112.578 35.8391 112.567 35.8557C112.562 35.8635 112.559 35.8726 112.559 35.8819C112.559 35.8912 112.562 35.9003 112.567 35.9081L113.953 40.355L113.968 40.4152C113.968 40.5155 113.912 40.5661 113.803 40.5661H111.994C111.947 40.5705 111.899 40.5577 111.86 40.53C111.822 40.5023 111.794 40.4615 111.783 40.4152M109.959 31.9154V34.4911C109.958 34.5014 109.958 34.512 109.962 34.5218C109.965 34.5317 109.971 34.5406 109.978 34.548C109.985 34.5554 109.994 34.5609 110.004 34.5642C110.014 34.5675 110.025 34.5685 110.035 34.567H110.712C110.86 34.5702 111.005 34.5384 111.138 34.4741C111.27 34.4098 111.386 34.3149 111.474 34.1973C111.67 33.9514 111.767 33.6224 111.767 33.2102C111.767 32.7882 111.67 32.4543 111.474 32.2084C111.386 32.0908 111.27 31.996 111.138 31.9318C111.005 31.8675 110.86 31.8356 110.712 31.8387H110.035C110.025 31.8372 110.014 31.8381 110.004 31.8414C109.994 31.8447 109.985 31.8503 109.978 31.8577C109.971 31.865 109.965 31.874 109.962 31.8839C109.958 31.8937 109.958 31.9042 109.959 31.9145" fill="#636466"/>
<path d="M119.243 40.3978L119.001 38.9503C119.001 38.9006 118.971 38.8754 118.914 38.8754H117C116.94 38.8754 116.913 38.9006 116.913 38.9503L116.672 40.3978C116.671 40.4219 116.665 40.4456 116.654 40.4672C116.644 40.4889 116.629 40.5081 116.61 40.5237C116.592 40.5393 116.57 40.5508 116.547 40.5577C116.524 40.5645 116.5 40.5665 116.476 40.5635H114.713C114.581 40.5635 114.531 40.4981 114.562 40.3673L116.777 30.1793C116.779 30.1556 116.785 30.1324 116.796 30.1112C116.807 30.09 116.822 30.0712 116.84 30.0558C116.859 30.0404 116.88 30.0288 116.903 30.0215C116.925 30.0143 116.949 30.0116 116.973 30.0137H119.007C119.031 30.0116 119.055 30.0143 119.078 30.0215C119.1 30.0288 119.121 30.0404 119.14 30.0558C119.158 30.0712 119.173 30.09 119.184 30.1112C119.195 30.1324 119.201 30.1556 119.203 30.1793L121.404 40.3673L121.419 40.4274C121.419 40.5146 121.363 40.5635 121.252 40.5635H119.445C119.421 40.5665 119.397 40.5645 119.374 40.5577C119.35 40.5508 119.329 40.5393 119.31 40.5237C119.292 40.5081 119.277 40.4889 119.266 40.4672C119.256 40.4456 119.25 40.4219 119.249 40.3978M117.275 37.2326H118.631C118.681 37.2326 118.701 37.2073 118.692 37.1576L117.983 33.0428C117.973 33.0132 117.957 32.9975 117.937 32.9975C117.917 32.9975 117.902 33.0132 117.892 33.0428L117.214 37.1576C117.214 37.2073 117.234 37.2326 117.275 37.2326Z" fill="#636466"/>
<path d="M122.324 40.5076C122.307 40.4909 122.294 40.471 122.285 40.4489C122.276 40.4269 122.271 40.4032 122.272 40.3794V30.1941C122.272 30.1704 122.277 30.1469 122.286 30.125C122.295 30.1031 122.308 30.0833 122.325 30.0665C122.341 30.0497 122.361 30.0364 122.383 30.0274C122.405 30.0183 122.429 30.0136 122.452 30.0136H125.18C126.094 30.0136 126.828 30.2799 127.381 30.8123C127.933 31.3448 128.21 32.0531 128.21 32.9373V37.6398C128.21 38.5239 127.933 39.2322 127.381 39.7647C126.828 40.2972 126.094 40.5634 125.18 40.5634H122.452C122.428 40.5638 122.405 40.5593 122.383 40.5501C122.361 40.541 122.341 40.5274 122.324 40.5102M124.472 38.7393L125.15 38.7245C125.28 38.7214 125.407 38.6884 125.522 38.6279C125.637 38.5673 125.737 38.481 125.813 38.3757C125.984 38.1542 126.074 37.8636 126.085 37.5037V33.0733C126.085 32.6914 125.999 32.3897 125.829 32.1682C125.748 32.0613 125.643 31.9753 125.523 31.9176C125.402 31.8599 125.269 31.8322 125.135 31.8369H124.472C124.461 31.8354 124.451 31.8363 124.441 31.8396C124.431 31.8429 124.422 31.8485 124.415 31.8559C124.408 31.8633 124.402 31.8722 124.399 31.8821C124.396 31.892 124.395 31.9025 124.397 31.9127V38.6643C124.395 38.6745 124.396 38.685 124.399 38.6948C124.402 38.7047 124.408 38.7137 124.415 38.721C124.422 38.7283 124.431 38.7338 124.441 38.737C124.451 38.7401 124.462 38.7409 124.472 38.7393Z" fill="#636466"/>
<path d="M129.498 40.5076C129.481 40.4909 129.467 40.471 129.458 40.4489C129.449 40.4269 129.445 40.4032 129.445 40.3794V30.1941C129.445 30.1462 129.464 30.1003 129.498 30.0665C129.532 30.0326 129.578 30.0136 129.626 30.0136H131.39C131.438 30.0138 131.483 30.0329 131.517 30.0667C131.551 30.1005 131.57 30.1463 131.57 30.1941V40.3821C131.57 40.43 131.551 40.476 131.518 40.51C131.484 40.544 131.438 40.5632 131.39 40.5634H129.627C129.603 40.5638 129.579 40.5593 129.557 40.5501C129.535 40.541 129.515 40.5274 129.499 40.5102" fill="#636466"/>
<path d="M137.275 30.0668C137.291 30.0497 137.311 30.0361 137.333 30.0269C137.355 30.0178 137.379 30.0133 137.403 30.0136H139.147C139.171 30.0135 139.194 30.0181 139.216 30.0271C139.238 30.0362 139.258 30.0494 139.275 30.0662C139.292 30.083 139.305 30.1029 139.314 30.1249C139.323 30.1468 139.328 30.1704 139.328 30.1941V40.3821C139.328 40.4059 139.324 40.4296 139.315 40.4516C139.306 40.4737 139.292 40.4937 139.275 40.5106C139.258 40.5274 139.238 40.5408 139.216 40.5499C139.194 40.5589 139.171 40.5635 139.147 40.5634H137.158C137.113 40.5659 137.068 40.552 137.032 40.5243C136.996 40.4967 136.971 40.457 136.962 40.4126L135.097 34.5783C135.087 34.5478 135.069 34.5356 135.044 34.5408C135.032 34.543 135.022 34.5496 135.015 34.5593C135.007 34.5691 135.004 34.5812 135.006 34.5932L135.022 40.3803C135.022 40.4042 135.017 40.4279 135.008 40.4499C134.999 40.472 134.986 40.4919 134.968 40.5085C134.952 40.5257 134.932 40.5393 134.91 40.5484C134.888 40.5576 134.864 40.5621 134.84 40.5617H133.092C133.044 40.5615 132.998 40.5423 132.964 40.5083C132.93 40.4743 132.911 40.4283 132.911 40.3803V30.1941C132.912 30.1463 132.931 30.1006 132.965 30.0668C132.998 30.033 133.044 30.0139 133.092 30.0136H135.067C135.112 30.0112 135.157 30.0251 135.193 30.0528C135.229 30.0804 135.254 30.1201 135.263 30.1645L137.147 35.997C137.156 36.0267 137.174 36.0397 137.199 36.0345C137.211 36.0324 137.222 36.0256 137.229 36.0157C137.236 36.0057 137.239 35.9934 137.237 35.9813L137.222 30.1941C137.221 30.1704 137.226 30.1469 137.235 30.125C137.244 30.1031 137.258 30.0833 137.275 30.0668Z" fill="#636466"/>
<path d="M141.328 39.9077C140.781 39.3898 140.507 38.6989 140.507 37.8351V32.7411C140.507 31.8779 140.781 31.1873 141.328 30.6693C141.876 30.1514 142.603 29.8927 143.508 29.8933C144.413 29.8933 145.142 30.1549 145.694 30.6781C146.247 31.2012 146.523 31.8945 146.523 32.7577V33.3297C146.523 33.3535 146.518 33.377 146.509 33.399C146.5 33.421 146.487 33.441 146.47 33.4579C146.453 33.4747 146.433 33.4881 146.411 33.4972C146.39 33.5064 146.366 33.5111 146.342 33.5111H144.578C144.53 33.5108 144.484 33.4916 144.451 33.4576C144.417 33.4236 144.398 33.3776 144.398 33.3297V32.7272C144.41 32.4621 144.324 32.2019 144.156 31.9965C144.076 31.9043 143.976 31.8314 143.864 31.7831C143.752 31.7348 143.63 31.7123 143.508 31.7174C143.389 31.7135 143.27 31.7365 143.16 31.7848C143.05 31.8331 142.953 31.9054 142.875 31.9965C142.708 32.2022 142.622 32.4623 142.635 32.7272V37.8517C142.622 38.1165 142.708 38.3766 142.875 38.5823C142.953 38.6733 143.05 38.7455 143.16 38.7936C143.27 38.8418 143.389 38.8647 143.508 38.8605C143.63 38.8658 143.752 38.8435 143.864 38.7954C143.976 38.7472 144.076 38.6744 144.156 38.5823C144.324 38.3769 144.41 38.1167 144.398 37.8517V36.6449C144.399 36.6346 144.398 36.6242 144.395 36.6144C144.392 36.6046 144.386 36.5957 144.379 36.5884C144.372 36.5811 144.363 36.5755 144.353 36.5721C144.343 36.5688 144.333 36.5677 144.323 36.569H143.659C143.635 36.5695 143.612 36.5651 143.59 36.5561C143.568 36.5471 143.548 36.5337 143.531 36.5167C143.514 36.5 143.501 36.4801 143.492 36.458C143.483 36.436 143.478 36.4123 143.479 36.3885V35.0474C143.479 35.0237 143.483 35.0001 143.492 34.9781C143.501 34.9561 143.514 34.9361 143.531 34.9193C143.548 34.9024 143.568 34.889 143.59 34.8799C143.612 34.8708 143.635 34.8661 143.659 34.8661H146.342C146.366 34.8657 146.39 34.8702 146.412 34.8794C146.434 34.8885 146.454 34.9021 146.47 34.9193C146.487 34.9359 146.501 34.9559 146.51 34.9779C146.519 35 146.523 35.0236 146.523 35.0474V37.8377C146.523 38.7021 146.247 39.393 145.694 39.9103C145.142 40.4277 144.413 40.6864 143.508 40.6864C142.604 40.6864 141.877 40.4277 141.328 39.9103" fill="#636466"/>
<path d="M150.762 40.5076C150.745 40.491 150.732 40.471 150.723 40.449C150.714 40.4269 150.709 40.4033 150.71 40.3795V30.1941C150.709 30.1705 150.714 30.147 150.723 30.1251C150.732 30.1032 150.745 30.0834 150.762 30.0668C150.779 30.0497 150.799 30.0361 150.821 30.0269C150.843 30.0178 150.866 30.0133 150.89 30.0136H152.653C152.677 30.0133 152.701 30.0178 152.723 30.0269C152.745 30.0361 152.765 30.0497 152.782 30.0668C152.799 30.0833 152.812 30.1031 152.821 30.125C152.83 30.1469 152.835 30.1704 152.835 30.1941V38.6643C152.833 38.6745 152.834 38.685 152.837 38.6949C152.84 38.7047 152.846 38.7137 152.853 38.721C152.86 38.7283 152.869 38.7338 152.879 38.737C152.889 38.7402 152.9 38.741 152.91 38.7393H156.075C156.123 38.7395 156.169 38.7587 156.203 38.7927C156.236 38.8267 156.255 38.8727 156.255 38.9207V40.3821C156.255 40.43 156.236 40.476 156.203 40.51C156.169 40.544 156.123 40.5632 156.075 40.5634H150.89C150.866 40.5638 150.843 40.5593 150.821 40.5501C150.799 40.541 150.779 40.5274 150.762 40.5103" fill="#636466"/>
<path d="M157.181 40.5076C157.164 40.491 157.15 40.471 157.141 40.449C157.132 40.4269 157.128 40.4033 157.128 40.3795V30.1941C157.128 30.1705 157.132 30.147 157.141 30.1251C157.15 30.1032 157.164 30.0834 157.181 30.0668C157.197 30.0497 157.217 30.0361 157.239 30.0269C157.261 30.0178 157.285 30.0133 157.309 30.0136H159.072C159.096 30.0133 159.119 30.0178 159.141 30.0269C159.164 30.0361 159.183 30.0497 159.2 30.0668C159.217 30.0833 159.231 30.1031 159.24 30.125C159.249 30.1469 159.253 30.1704 159.253 30.1941V38.6643C159.252 38.6745 159.252 38.685 159.256 38.6949C159.259 38.7047 159.264 38.7137 159.272 38.721C159.279 38.7283 159.288 38.7338 159.298 38.737C159.308 38.7402 159.318 38.741 159.328 38.7393H162.5C162.547 38.7395 162.593 38.7587 162.627 38.7927C162.661 38.8267 162.68 38.8727 162.68 38.9207V40.3821C162.68 40.43 162.661 40.476 162.627 40.51C162.593 40.544 162.547 40.5632 162.5 40.5634H157.315C157.291 40.5638 157.267 40.5593 157.245 40.5501C157.223 40.541 157.203 40.5274 157.187 40.5103" fill="#636466"/>
<path d="M164.156 39.8772C163.609 39.3401 163.335 38.6193 163.335 37.7148V32.8318C163.335 31.9383 163.609 31.2251 164.156 30.692C164.704 30.159 165.43 29.8927 166.336 29.8933C167.25 29.8933 167.981 30.1595 168.529 30.692C169.077 31.2245 169.351 31.9378 169.35 32.8318V32.9975C169.35 33.0213 169.346 33.0449 169.337 33.067C169.328 33.089 169.314 33.109 169.297 33.1257C169.281 33.1428 169.261 33.1564 169.239 33.1656C169.217 33.1747 169.193 33.1792 169.169 33.1788L167.406 33.2538C167.286 33.2538 167.226 33.1989 167.226 33.0881V32.6958C167.237 32.4378 167.151 32.1851 166.984 31.9878C166.903 31.8977 166.802 31.8267 166.69 31.7799C166.578 31.733 166.457 31.7114 166.336 31.7166C166.217 31.7122 166.099 31.7343 165.989 31.7812C165.88 31.8281 165.782 31.8986 165.703 31.9878C165.536 32.1849 165.45 32.4378 165.462 32.6958V37.8918C165.45 38.1467 165.536 38.3964 165.703 38.5893C165.783 38.6762 165.882 38.7446 165.991 38.7898C166.1 38.835 166.218 38.8558 166.336 38.8509C166.457 38.8567 166.577 38.8363 166.689 38.7912C166.801 38.746 166.901 38.6772 166.984 38.5893C167.151 38.3962 167.237 38.1466 167.226 37.8918V37.4854C167.225 37.4616 167.229 37.438 167.238 37.4159C167.247 37.3939 167.261 37.3739 167.278 37.3573C167.294 37.3401 167.314 37.3265 167.336 37.3174C167.358 37.3082 167.382 37.3037 167.406 37.3041L169.169 37.3799C169.193 37.3791 169.217 37.3832 169.239 37.3919C169.261 37.4007 169.282 37.414 169.299 37.4309C169.316 37.4478 169.329 37.4681 169.338 37.4904C169.346 37.5126 169.351 37.5365 169.35 37.5604V37.7174C169.35 38.6219 169.074 39.3427 168.521 39.8798C167.969 40.4169 167.241 40.6843 166.336 40.682C165.432 40.682 164.705 40.4132 164.156 39.8755" fill="#636466"/>
<defs>
<linearGradient id="paint0_linear_8667_388548" x1="-0.0673149" y1="21.893" x2="26.3896" y2="21.893" gradientUnits="userSpaceOnUse">
<stop stop-color="#8CD2CB"/>
<stop offset="0.32" stop-color="#04AFD2"/>
<stop offset="0.7" stop-color="#1771B9"/>
<stop offset="1" stop-color="#1D489A"/>
</linearGradient>
<linearGradient id="paint1_linear_8667_388548" x1="14.85" y1="34.3598" x2="41.3069" y2="34.3598" gradientUnits="userSpaceOnUse">
<stop stop-color="#8CD2CB"/>
<stop offset="0.18" stop-color="#04AFD2"/>
<stop offset="0.21" stop-color="#08A3CD"/>
<stop offset="0.31" stop-color="#0E8DC4"/>
<stop offset="0.41" stop-color="#137DBE"/>
<stop offset="0.53" stop-color="#1674BA"/>
<stop offset="0.68" stop-color="#1771B9"/>
<stop offset="1" stop-color="#1D489A"/>
</linearGradient>
<radialGradient id="paint2_radial_8667_388548" cx="0" cy="0" r="1" gradientUnits="userSpaceOnUse" gradientTransform="translate(109.249 17.0601) scale(58.3408 58.3408)">
<stop stop-color="#1771B9"/>
<stop offset="1" stop-color="#1D489A"/>
</radialGradient>
<radialGradient id="paint3_radial_8667_388548" cx="0" cy="0" r="1" gradientUnits="userSpaceOnUse" gradientTransform="translate(109.249 17.0601) scale(58.3408 58.3408)">
<stop stop-color="#1771B9"/>
<stop offset="1" stop-color="#1D489A"/>
</radialGradient>
<radialGradient id="paint4_radial_8667_388548" cx="0" cy="0" r="1" gradientUnits="userSpaceOnUse" gradientTransform="translate(109.249 17.0601) scale(58.3408 58.3408)">
<stop stop-color="#1771B9"/>
<stop offset="1" stop-color="#1D489A"/>
</radialGradient>
<radialGradient id="paint5_radial_8667_388548" cx="0" cy="0" r="1" gradientUnits="userSpaceOnUse" gradientTransform="translate(109.249 17.0601) scale(58.3408 58.3408)">
<stop stop-color="#1771B9"/>
<stop offset="1" stop-color="#1D489A"/>
</radialGradient>
<radialGradient id="paint6_radial_8667_388548" cx="0" cy="0" r="1" gradientUnits="userSpaceOnUse" gradientTransform="translate(109.249 17.0601) scale(58.3408 58.3408)">
<stop stop-color="#1771B9"/>
<stop offset="1" stop-color="#1D489A"/>
</radialGradient>
<radialGradient id="paint7_radial_8667_388548" cx="0" cy="0" r="1" gradientUnits="userSpaceOnUse" gradientTransform="translate(109.249 17.0601) scale(58.3409 58.3408)">
<stop stop-color="#1771B9"/>
<stop offset="1" stop-color="#1D489A"/>
</radialGradient>
<radialGradient id="paint8_radial_8667_388548" cx="0" cy="0" r="1" gradientUnits="userSpaceOnUse" gradientTransform="translate(109.249 17.0601) scale(58.3408 58.3408)">
<stop stop-color="#1771B9"/>
<stop offset="1" stop-color="#1D489A"/>
</radialGradient>
<radialGradient id="paint9_radial_8667_388548" cx="0" cy="0" r="1" gradientUnits="userSpaceOnUse" gradientTransform="translate(109.249 17.0601) scale(58.3408 58.3408)">
<stop stop-color="#1771B9"/>
<stop offset="1" stop-color="#1D489A"/>
</radialGradient>
<radialGradient id="paint10_radial_8667_388548" cx="0" cy="0" r="1" gradientUnits="userSpaceOnUse" gradientTransform="translate(109.249 17.0601) scale(58.3408 58.3408)">
<stop stop-color="#1771B9"/>
<stop offset="1" stop-color="#1D489A"/>
</radialGradient>
<radialGradient id="paint11_radial_8667_388548" cx="0" cy="0" r="1" gradientUnits="userSpaceOnUse" gradientTransform="translate(109.249 17.0601) scale(58.3409 58.3408)">
<stop stop-color="#1771B9"/>
<stop offset="1" stop-color="#1D489A"/>
</radialGradient>
<radialGradient id="paint12_radial_8667_388548" cx="0" cy="0" r="1" gradientUnits="userSpaceOnUse" gradientTransform="translate(109.249 17.0601) scale(58.3409 58.3408)">
<stop stop-color="#1771B9"/>
<stop offset="1" stop-color="#1D489A"/>
</radialGradient>
<radialGradient id="paint13_radial_8667_388548" cx="0" cy="0" r="1" gradientUnits="userSpaceOnUse" gradientTransform="translate(109.249 17.0601) scale(58.3408 58.3408)">
<stop stop-color="#1771B9"/>
<stop offset="1" stop-color="#1D489A"/>
</radialGradient>
</defs>
</svg>
